# Blender 4.1.1
# www.blender.org
mtllib platform.mtl
o Platform
v 10.000000 1.000000 5.000000
v 10.000000 1.000000 -5.000000
v 10.000000 -1.000000 5.000000
v 10.000000 -1.000000 -5.000000
v -10.000000 1.000000 5.000000
v -10.000000 1.000000 -5.000000
v -10.000000 -1.000000 5.000000
v -10.000000 -1.000000 -5.000000
vn -0.0000 -0.0000 1.0000
vn -0.0000 -1.0000 -0.0000
vn -1.0000 -0.0000 -0.0000
vn -0.0000 -0.0000 -1.0000
vn 1.0000 -0.0000 -0.0000
vn -0.0000 1.0000 -0.0000
vt 1.000000 0.550000
vt 0.000000 0.550000
vt 0.000000 0.450000
vt 1.000000 0.450000
vt 1.000000 0.250000
vt 1.000000 0.750000
vt 0.000000 0.750000
vt 0.000000 0.250000
vt 0.450000 0.250000
vt 0.450000 0.750000
vt 0.550000 0.750000
vt 0.550000 0.250000
s 0
f 1/1/1 5/2/1 7/3/1 3/4/1
f 4/5/2 3/6/2 7/7/2 8/8/2
f 8/9/3 7/10/3 5/11/3 6/12/3
f 6/2/4 2/1/4 4/4/4 8/3/4
f 2/12/5 1/11/5 3/10/5 4/9/5
f 6/8/6 5/7/6 1/6/6 2/5/6
